HIERARCHY
ROOT joint_Root
{
	OFFSET 0.0 0.0 0.0
	CHANNELS 6 Xposition Yposition Zposition Zrotation Xrotation Yrotation 
	JOINT Hips
	{
		OFFSET 4.5925 91.4895 -427.239
		CHANNELS 6 Xposition Yposition Zposition Zrotation Xrotation Yrotation 
		JOINT Spine
		{
			OFFSET 15.7357 0.0 0.0
			CHANNELS 6 Xposition Yposition Zposition Zrotation Xrotation Yrotation 
			JOINT Chest
			{
				OFFSET 8.98455 -0.406207 0.0
				CHANNELS 6 Xposition Yposition Zposition Zrotation Xrotation Yrotation 
				JOINT Neck
				{
					OFFSET 16.3773 0.0 0.0
					CHANNELS 6 Xposition Yposition Zposition Zrotation Xrotation Yrotation 
					JOINT Head
					{
						OFFSET 6.45672 0.0 0.0
						CHANNELS 6 Xposition Yposition Zposition Zrotation Xrotation Yrotation 
						End Site
						{
							OFFSET 0.0 0.0 0.0
						}
					}
				}
				JOINT Shoulder_L
				{
					OFFSET 12.9942 -0.242716 4.98039
					CHANNELS 6 Xposition Yposition Zposition Zrotation Xrotation Yrotation 
					JOINT UpperArm_L
					{
						OFFSET 5.34809 0.0 0.0
						CHANNELS 6 Xposition Yposition Zposition Zrotation Xrotation Yrotation 
						JOINT LowerArm_L
						{
							OFFSET 24.3286 1.87007e-05 0.0
							CHANNELS 6 Xposition Yposition Zposition Zrotation Xrotation Yrotation 
							JOINT Hand_L
							{
								OFFSET 22.2916 0.0 0.0
								CHANNELS 6 Xposition Yposition Zposition Zrotation Xrotation Yrotation 
								End Site
								{
									OFFSET 0.0 0.0 0.0
								}
							}
						}
					}
				}
				JOINT Shoulder_R
				{
					OFFSET 12.9945 -0.242716 -4.98039
					CHANNELS 6 Xposition Yposition Zposition Zrotation Xrotation Yrotation 
					JOINT UpperArm_R
					{
						OFFSET -5.34813 0.0 0.0
						CHANNELS 6 Xposition Yposition Zposition Zrotation Xrotation Yrotation 
						JOINT LowerArm_R
						{
							OFFSET -24.3289 0.000322201 0.0
							CHANNELS 6 Xposition Yposition Zposition Zrotation Xrotation Yrotation 
							JOINT Hand_R
							{
								OFFSET -22.2915 -0.000108084 0.0
								CHANNELS 6 Xposition Yposition Zposition Zrotation Xrotation Yrotation 
								End Site
								{
									OFFSET 0.0 0.0 0.0
								}
							}
						}
					}
				}
			}
		}
		JOINT UpperLeg_L
		{
			OFFSET -2.19248 -6.46944 0.0
			CHANNELS 6 Xposition Yposition Zposition Zrotation Xrotation Yrotation 
			JOINT LowerLeg_L
			{
				OFFSET 39.0811 0.0 -1.23785e-05
				CHANNELS 6 Xposition Yposition Zposition Zrotation Xrotation Yrotation 
				JOINT Foot_L
				{
					OFFSET 40.9854 0.0 -1.26872e-05
					CHANNELS 6 Xposition Yposition Zposition Zrotation Xrotation Yrotation 
					JOINT Toes_L
					{
						OFFSET 11.7543 0.0 0.0
						CHANNELS 6 Xposition Yposition Zposition Zrotation Xrotation Yrotation 
						End Site
						{
							OFFSET 0.0 0.0 0.0
						}
					}
				}
			}
		}
		JOINT UpperLeg_R
		{
			OFFSET -2.19251 6.46944 0.0
			CHANNELS 6 Xposition Yposition Zposition Zrotation Xrotation Yrotation 
			JOINT LowerLeg_R
			{
				OFFSET -39.0811 -0.00228153 -0.0401928
				CHANNELS 6 Xposition Yposition Zposition Zrotation Xrotation Yrotation 
				JOINT Foot_R
				{
					OFFSET -40.9854 0.0 0.0
					CHANNELS 6 Xposition Yposition Zposition Zrotation Xrotation Yrotation 
					JOINT Toes_R
					{
						OFFSET -11.7543 0.0 0.0
						CHANNELS 6 Xposition Yposition Zposition Zrotation Xrotation Yrotation 
						End Site
						{
							OFFSET 0.0 0.0 0.0
						}
					}
				}
			}
		}
	}
}
MOTION
Frames:	6
Frame Time:	0.0333333
0.000000 0.000000 0.000000 0.000000 0.000000 -0.000000 -0.501283 90.517300 2.209620 89.899700 -2.105200 11.816800 15.735700 0.000005 -0.000001 85.819100 82.679000 -85.931400 8.984550 -0.406207 -0.000000 6.836810 -1.063060 -0.160973 16.377300 -0.000001 -0.000001 16.783100 -0.389430 -0.777901 6.456720 -0.000001 -0.000000 9.278210 1.207010 -5.407380 12.994200 -0.242716 4.980390 -91.612600 5.541290 -73.746600 5.348090 -0.000007 -0.000001 -62.529000 39.052800 -15.188900 24.328600 0.000019 0.000005 7.681110 22.857500 -19.147300 22.291600 -0.000001 0.000005 7.808680 5.265000 1.032980 12.994500 -0.242716 -4.980390 88.546100 9.867770 -81.575600 -5.348130 -0.000001 -0.000004 -63.680600 27.284700 -9.871000 -24.328900 0.000322 -0.000009 1.052620 3.174360 -18.374600 -22.291500 -0.000108 -0.000004 12.691900 5.358200 -1.624670 -2.192480 -6.469440 -0.000000 -174.192000 -12.753200 3.455300 39.081100 -0.000007 -0.000012 -0.199859 0.335655 30.771100 40.985400 -0.000006 -0.000013 0.151048 5.476360 -72.015300 11.754300 -0.000000 0.000003 -0.000212 -0.001941 -16.650700 -2.192510 6.469440 -0.000001 171.021000 23.644100 -174.279000 -39.081100 -0.002282 -0.040193 -0.242851 0.423619 30.160000 -40.985400 0.000008 0.000006 3.185020 14.280900 -72.744700 -11.754300 -0.000006 -0.000006 -0.001763 -0.025714 -17.618700
0.000000 0.000000 0.000000 0.000000 0.000000 -0.000000 -0.393543 90.512100 2.167980 89.908400 -2.282070 11.952000 15.735700 0.000005 -0.000001 86.149100 82.566000 -86.319000 8.984550 -0.406207 -0.000000 7.067760 -0.994013 -0.278001 16.377300 -0.000001 -0.000001 16.962600 -0.046887 -1.132100 6.456720 -0.000001 -0.000000 9.185660 1.658220 -5.758480 12.994200 -0.242716 4.980390 -91.636400 5.582790 -73.634900 5.348090 -0.000007 -0.000001 -62.637500 38.776900 -14.827800 24.328600 0.000019 0.000005 7.636070 22.942600 -18.979800 22.291600 -0.000001 0.000005 7.728950 5.264990 1.033360 12.994500 -0.242716 -4.980390 88.505500 9.853410 -81.331700 -5.348130 -0.000001 -0.000004 -63.346600 25.790900 -10.056700 -24.328900 0.000322 -0.000009 0.908104 2.665890 -18.839000 -22.291500 -0.000108 -0.000004 12.654100 5.365440 -1.845770 -2.192480 -6.469440 -0.000000 -174.237000 -12.859200 3.560160 39.081100 -0.000007 -0.000012 -0.197395 0.330890 30.818800 40.985400 -0.000006 -0.000013 0.212941 5.389750 -72.035800 11.754300 -0.000000 0.000003 -0.000189 -0.001769 -16.644400 -2.192510 6.469440 -0.000001 170.955000 23.414200 -174.254000 -39.081100 -0.002282 -0.040193 -0.243369 0.423354 30.227900 -40.985400 0.000008 0.000006 3.114230 14.271400 -72.701300 -11.754300 -0.000006 -0.000006 -0.001695 -0.024831 -17.582800
0.000000 0.000000 0.000000 0.000000 0.000000 -0.000000 -0.285970 90.510400 2.112060 89.859900 -2.464250 12.019700 15.735700 0.000005 -0.000001 86.392600 82.446500 -86.606700 8.984550 -0.406207 -0.000000 7.310030 -0.946152 -0.367163 16.377300 -0.000001 -0.000001 17.081800 0.315308 -1.397940 6.456720 -0.000001 -0.000000 8.951060 2.175130 -6.260420 12.994200 -0.242716 4.980390 -91.658900 5.615290 -73.512600 5.348090 -0.000007 -0.000001 -62.661400 38.636600 -14.627200 24.328600 0.000019 0.000005 7.573540 22.903200 -18.862200 22.291600 -0.000001 0.000005 7.707540 5.265550 1.018210 12.994500 -0.242716 -4.980390 88.455800 9.855310 -81.049500 -5.348130 -0.000001 -0.000004 -62.856400 23.575100 -10.417500 -24.328900 0.000322 -0.000009 0.787501 2.219190 -19.569400 -22.291500 -0.000108 -0.000004 12.574700 5.368970 -1.954470 -2.192480 -6.469440 -0.000000 -174.238000 -12.975700 3.586550 39.081100 -0.000007 -0.000012 -0.192631 0.322041 30.886400 40.985400 -0.000006 -0.000013 0.283718 5.322040 -72.065400 11.754300 -0.000000 0.000003 -0.000194 -0.001804 -16.645700 -2.192510 6.469440 -0.000001 170.947000 23.285100 -174.274000 -39.081100 -0.002282 -0.040193 -0.245537 0.426638 30.253400 -40.985400 0.000008 0.000006 3.069110 14.349700 -72.632800 -11.754300 -0.000006 -0.000006 -0.002050 -0.029341 -17.766200
0.000000 0.000000 0.000000 0.000000 0.000000 -0.000000 -0.152985 90.507700 2.043190 89.850100 -2.573390 12.123000 15.735700 0.000005 -0.000001 86.496500 82.299000 -86.767200 8.984550 -0.406207 -0.000000 7.605730 -0.937127 -0.478487 16.377300 -0.000001 -0.000001 17.158500 0.671638 -1.638150 6.456720 -0.000001 -0.000000 8.702960 2.691250 -6.839250 12.994200 -0.242716 4.980390 -91.688300 5.685250 -73.430100 5.348090 -0.000007 -0.000001 -62.645300 38.481900 -14.525500 24.328600 0.000019 0.000005 7.580390 22.963500 -18.834600 22.291600 -0.000001 0.000005 7.698370 5.264990 1.033150 12.994500 -0.242716 -4.980390 88.414300 9.782040 -80.745800 -5.348130 -0.000001 -0.000004 -62.076400 21.328700 -10.974000 -24.328900 0.000322 -0.000009 0.586545 1.557950 -20.670500 -22.291500 -0.000108 -0.000004 12.719100 5.370080 -1.988840 -2.192480 -6.469440 -0.000000 -174.298000 -13.046600 3.621800 39.081100 -0.000007 -0.000012 -0.190296 0.317298 30.953000 40.985400 -0.000006 -0.000013 0.358326 5.220910 -72.075400 11.754300 -0.000000 0.000003 -0.000191 -0.001779 -16.644800 -2.192510 6.469440 -0.000001 170.866000 23.213800 -174.279000 -39.081100 -0.002282 -0.040193 -0.239949 0.416015 30.315800 -40.985400 0.000008 0.000006 3.016570 14.426700 -72.568200 -11.754300 -0.000006 -0.000006 -0.001893 -0.027370 -17.686000
0.000000 0.000000 0.000000 0.000000 0.000000 -0.000000 -0.025283 90.507300 1.957490 89.848700 -2.712940 12.242300 15.735700 0.000005 -0.000001 86.662200 82.140200 -86.997200 8.984550 -0.406207 -0.000000 7.925120 -0.911849 -0.606087 16.377300 -0.000001 -0.000001 17.212300 0.997094 -1.887250 6.456720 -0.000001 -0.000000 8.500020 3.204750 -7.460250 12.994200 -0.242716 4.980390 -91.711500 5.733630 -73.348500 5.348090 -0.000007 -0.000001 -62.553900 38.486700 -14.591200 24.328600 0.000019 0.000005 7.529920 22.826700 -18.815300 22.291600 -0.000001 0.000005 7.564620 5.263690 1.068320 12.994500 -0.242716 -4.980390 88.359300 9.718850 -80.370000 -5.348130 -0.000001 -0.000004 -60.973900 18.767100 -11.787600 -24.328900 0.000322 -0.000009 0.433387 1.071980 -22.064000 -22.291500 -0.000108 -0.000004 12.485800 5.372490 -2.064130 -2.192480 -6.469440 -0.000000 -174.379000 -13.084900 3.662550 39.081100 -0.000007 -0.000012 -0.188810 0.314109 31.010200 40.985400 -0.000006 -0.000013 0.426481 5.082990 -72.068800 11.754300 -0.000000 0.000003 -0.000188 -0.001754 -16.643800 -2.192510 6.469440 -0.000001 170.775000 23.106800 -174.276000 -39.081100 -0.002282 -0.040193 -0.243577 0.421254 30.373000 -40.985400 0.000008 0.000006 2.954570 14.480600 -72.490600 -11.754300 -0.000006 -0.000006 -0.001770 -0.025804 -17.622300
0.000000 0.000000 0.000000 0.000000 0.000000 -0.000000 0.120635 90.509100 1.885870 89.825700 -2.833520 12.332300 15.735700 0.000005 -0.000001 86.758100 82.014300 -87.149400 8.984550 -0.406207 -0.000000 8.177690 -0.900592 -0.717517 16.377300 -0.000001 -0.000001 17.375000 1.300230 -2.147720 6.456720 -0.000001 -0.000000 8.384400 3.645440 -8.110980 12.994200 -0.242716 4.980390 -91.730500 5.767560 -73.266900 5.348090 -0.000007 -0.000001 -62.486500 38.542900 -14.673900 24.328600 0.000019 0.000005 7.483740 22.639000 -18.843200 22.291600 -0.000001 0.000005 7.505550 5.261800 1.118990 12.994500 -0.242716 -4.980390 88.309900 9.607360 -79.973700 -5.348130 -0.000001 -0.000004 -59.661500 15.668500 -12.668100 -24.328900 0.000322 -0.000009 0.269222 0.610661 -23.883500 -22.291500 -0.000108 -0.000004 12.195100 5.369630 -1.975030 -2.192480 -6.469440 -0.000000 -174.435000 -13.161300 3.698230 39.081100 -0.000007 -0.000012 -0.187143 0.310773 31.056100 40.985400 -0.000006 -0.000013 0.518262 5.005330 -72.074200 11.754300 -0.000000 0.000003 -0.000196 -0.001819 -16.646200 -2.192510 6.469440 -0.000001 170.740000 22.912900 -174.296000 -39.081100 -0.002282 -0.040193 -0.244753 0.422854 30.397000 -40.985400 0.000008 0.000006 2.859450 14.478900 -72.395100 -11.754300 -0.000006 -0.000006 -0.001845 -0.026765 -17.661400
